<?xml version="1.0" standalone="no"?>
<!DOCTYPE svg PUBLIC "-//W3C//DTD SVG 20010904//EN"
 "http://www.w3.org/TR/2001/REC-SVG-20010904/DTD/svg10.dtd">
<svg version="1.0" xmlns="http://www.w3.org/2000/svg"
 width="500.000000pt" height="500.000000pt" viewBox="0 0 500.000000 500.000000"
 preserveAspectRatio="xMidYMid meet">

<g transform="translate(0.000000,500.000000) scale(0.100000,-0.100000)"
fill="#000000" stroke="none">
<path d="M1764 3711 c-30 -13 -64 -59 -64 -88 0 -86 102 -135 164 -78 14 13
26 29 26 35 0 7 191 10 610 10 419 0 610 -3 610 -10 0 -6 12 -22 26 -35 62
-58 164 -8 164 79 0 14 -13 40 -29 58 -24 27 -36 33 -71 33 -37 0 -47 -6 -75
-38 l-32 -37 -593 0 -593 0 -31 35 c-33 37 -76 51 -112 36z"/>
<path d="M2255 3196 c-108 -16 -161 -29 -238 -55 -270 -94 -407 -302 -356
-543 57 -269 354 -418 834 -418 338 0 576 69 718 208 86 84 127 184 127 307
-1 248 -186 420 -530 490 -106 22 -439 28 -555 11z m520 -235 c232 -48 334
-129 335 -264 0 -101 -47 -163 -167 -219 -111 -52 -232 -72 -448 -72 -219 0
-335 19 -455 75 -150 69 -202 189 -137 316 47 90 213 160 437 184 110 11 332
1 435 -20z"/>
<path d="M2292 2068 c-7 -7 -12 -40 -12 -80 l0 -67 -35 21 c-134 79 -260 -117
-145 -227 40 -38 119 -46 167 -16 56 35 64 63 61 228 -3 144 -9 168 -36 141z
m-37 -183 c33 -32 34 -93 2 -130 -44 -52 -137 -25 -150 43 -6 33 15 86 40 101
33 19 82 13 108 -14z"/>
<path d="M2483 1945 c-95 -41 -97 -201 -4 -250 56 -29 171 -9 171 30 0 23 -16
26 -55 9 -44 -18 -80 -12 -112 18 -43 40 -31 47 80 50 l102 3 3 27 c11 91 -92
154 -185 113z m117 -55 c40 -40 27 -50 -60 -50 -44 0 -80 4 -80 9 0 4 9 20 21
35 26 33 88 37 119 6z"/>
<path d="M2704 1945 c-4 -9 13 -59 41 -118 56 -121 71 -147 89 -147 7 0 40 57
74 127 54 112 60 130 47 142 -21 21 -31 8 -81 -101 l-42 -91 -49 99 c-48 98
-67 120 -79 89z"/>
<path d="M1751 1656 c-87 -48 -50 -186 50 -186 31 0 77 27 84 50 6 20 14 20
615 20 601 0 609 0 615 -20 7 -23 53 -50 84 -50 52 0 101 48 101 100 0 52 -49
100 -101 100 -31 0 -77 -27 -84 -50 -6 -20 -14 -20 -615 -20 -601 0 -609 0
-615 20 -8 24 -54 50 -87 50 -13 -1 -34 -7 -47 -14z"/>
</g>
</svg>
